<svg height="512" viewBox="0 0 64 64" width="512" xmlns="http://www.w3.org/2000/svg"><g id="nitrogen"><path d="m61.77 7.19a2 2 0 0 1 0 2.83l-2.82 2.83-2.13-2.12-2.82-2.83-2.13-2.12 2.83-2.83a2 2 0 0 1 2.83 0z" fill="#ff3051"/><path d="m53.764 13.649h4.002v9.001h-4.002z" fill="#ffde55" transform="matrix(.708 -.707 .707 .708 3.478 44.707)"/><path d="m54 7.9 2.82 2.83-2.82 2.82-2.83 2.83-1.41 1.42h-.01l-2.82-2.83z" fill="#c6c5ca"/><path d="m50.46 18.5a8 8 0 0 1 .06 11.25 30.091 30.091 0 0 0 -6.42-9.12 30.171 30.171 0 0 0 -9.13-6.43 8 8 0 0 1 11.25.06l.7.71h.01l2.82 2.83h.01z" fill="#57a4ff"/><path d="m50.52 29.75a.435.435 0 0 1 -.06.07l-19.86 19.86h-.01a30.194 30.194 0 0 1 -9.12-6.43 30.194 30.194 0 0 1 -6.43-9.12v-.01l19.86-19.86a.435.435 0 0 1 .07-.06 30.171 30.171 0 0 1 9.13 6.43 30.091 30.091 0 0 1 6.42 9.12z" fill="#ff3051"/><path d="m30.59 49.68-5.59 5.59-15.55-15.55 5.59-5.59a30.194 30.194 0 0 0 6.43 9.12 30.194 30.194 0 0 0 9.12 6.43z" fill="#57a4ff"/><path d="m13.813 37.913h3.999v21.995h-3.999z" fill="#c6c5ca" transform="matrix(.706 -.708 .708 .706 -29.995 25.588)"/><path d="m22.18 58.1a2 2 0 0 1 0 2.83 2.033 2.033 0 0 1 -1.42.59 1.993 1.993 0 0 1 -1.41-.59l-15.56-15.56a2 2 0 1 1 2.83-2.82z" fill="#ff3051"/><path d="m61.77 10.02-2.82 2.83-2.13-2.12-1.87-1.88 2.82-2.83a2 2 0 0 0 0-2.83l4 4a2 2 0 0 1 0 2.83z" fill="#cd2a00"/><path d="m54.944 16.507h4.002v5.657h-4.002z" fill="#ffcd00" transform="matrix(.707 -.707 .707 .707 3.007 45.93)"/><path d="m50.52 29.75a26.026 26.026 0 0 0 -3.03-5.2 8.015 8.015 0 0 0 -.99-10.01l.42.43h.01l2.82 2.83h.01l.7.7a8 8 0 0 1 .06 11.25z" fill="#2488ff"/><path d="m50.52 29.75a.435.435 0 0 1 -.06.07l-19.86 19.86h-.01a26.252 26.252 0 0 1 -5.06-2.94l1.06-1.06h.01l19.86-19.86a.435.435 0 0 0 .06-.07 8.358 8.358 0 0 0 .97-1.2 26.026 26.026 0 0 1 3.03 5.2z" fill="#cd2a00"/><path d="m30.59 49.68-5.59 5.59-4-4 4.53-4.53a26.252 26.252 0 0 0 5.06 2.94z" fill="#2488ff"/><path d="m25 55.27-2.82 2.83-3.99-3.98c0-.01 0-.01-.01-.02l2.82-2.83z" fill="#acabb1"/><path d="m22.18 60.93a2.033 2.033 0 0 1 -1.42.59 1.993 1.993 0 0 1 -1.41-.59l-4-4a1.993 1.993 0 0 0 1.41.59 2.033 2.033 0 0 0 1.42-.59 2 2 0 0 0 .01-2.81l3.99 3.98a2 2 0 0 1 0 2.83z" fill="#cd2a00"/><path d="m58.24 13.55a.978.978 0 0 0 1.41 0l2.83-2.82a3.006 3.006 0 0 0 0-4.25l-4.24-4.24a3.075 3.075 0 0 0 -4.24 0l-2.83 2.83a1 1 0 0 0 -.3.71.976.976 0 0 0 .3.7l1.41 1.42-5.66 5.65a9.008 9.008 0 0 0 -12.72 0l-25.46 25.46-2.26 2.26a3.079 3.079 0 0 0 -3.4.57 3.018 3.018 0 0 0 0 4.24l15.56 15.56a2.995 2.995 0 0 0 4.82-3.41l2.25-2.25 25.46-25.45a9.011 9.011 0 0 0 0-12.73l5.65 5.65a1.01 1.01 0 0 0 .71.3.992.992 0 0 0 .71-.3l2.83-2.82a1.008 1.008 0 0 0 0-1.42l-5.66-5.66 1.41-1.41zm-2.83-9.89a1.014 1.014 0 0 1 1.41 0l4.25 4.24a1.027 1.027 0 0 1 .29.7.99.99 0 0 1 -.29.71l-2.12 2.12-5.66-5.65zm-33.94 56.56a1.008 1.008 0 0 1 -1.42 0l-15.55-15.55a1 1 0 0 1 1.41-1.42l15.56 15.56a1 1 0 0 1 0 1.41zm.71-3.53-14.15-14.14 1.42-1.42 14.14 14.14zm2.82-2.83-14.14-14.14 3.88-3.88a32.938 32.938 0 0 0 6.02 8.12 32.687 32.687 0 0 0 8.12 6.02zm5.38-5.38a29.967 29.967 0 0 1 -8.2-5.93 29.992 29.992 0 0 1 -5.94-8.21l18.94-18.94a30.006 30.006 0 0 1 8.21 5.93 29.857 29.857 0 0 1 5.93 8.21zm20.35-20.61a32.765 32.765 0 0 0 -5.93-7.95 32.765 32.765 0 0 0 -7.95-5.93 7.005 7.005 0 0 1 8.66.98l4.24 4.24a7.005 7.005 0 0 1 .98 8.66zm8.22-7.95-1.42 1.41-4.95-4.95.53-.53.89-.88zm-7.55-5.19-.94.95-.71.7-1.41-1.41 5.66-5.66 1.41 1.42z"/><path d="m32 37.657 1.414-1.414-3.242-3.243h6.07a1 1 0 0 0 .707-1.707l-4.949-4.95-1.414 1.414 3.242 3.243h-6.07a1 1 0 0 0 -.707 1.707z"/></g></svg>